<?xml version="1.0" standalone="no"?><svg xmlns="http://www.w3.org/2000/svg" viewBox="0 0 1440 320"><path fill="#77D2FF" fill-opacity="0.4" d="M0,224L30,229.3C60,235,120,245,180,229.3C240,213,300,171,360,133.3C420,96,480,64,540,74.7C600,85,660,139,720,186.7C780,235,840,277,900,250.7C960,224,1020,128,1080,128C1140,128,1200,224,1260,256C1320,288,1380,256,1410,240L1440,224L1440,0L1410,0C1380,0,1320,0,1260,0C1200,0,1140,0,1080,0C1020,0,960,0,900,0C840,0,780,0,720,0C660,0,600,0,540,0C480,0,420,0,360,0C300,0,240,0,180,0C120,0,60,0,30,0L0,0Z"></path></svg>